<svg width="20" height="20" viewBox="0 0 20 20" fill="none" xmlns="http://www.w3.org/2000/svg">
<g clip-path="url(#clip0_14_2609)">
<path d="M10 0C4.48438 0 0 4.48438 0 10C0 15.5156 4.48438 20 10 20C15.5156 20 20 15.5156 20 10C20 4.48438 15.5156 0 10 0ZM10 16.668C9.53906 16.668 9.16797 16.293 9.16797 15.8359C9.16797 15.3789 9.53906 15 10 15C10.4609 15 10.832 15.375 10.832 15.832C10.832 16.2891 10.4609 16.668 10 16.668ZM10.832 13.75C10.832 13.9805 10.6445 14.168 10.4141 14.168H9.58203C9.35156 14.168 9.16406 13.9805 9.16406 13.75V3.75C9.16406 3.51953 9.35156 3.33203 9.58203 3.33203H10.4141C10.6445 3.33203 10.832 3.51953 10.832 3.75V13.75Z" fill="#FF3E24"/>
</g>
<defs>
<clipPath id="clip0_14_2609">
<rect width="20" height="20" fill="white"/>
</clipPath>
</defs>
</svg>
