<svg width="27" height="29" viewBox="0 0 27 29" fill="none" xmlns="http://www.w3.org/2000/svg">
<g id="Group 8">
<path id="Rectangle 5" d="M1.83325 14.125C1.83325 12.2394 1.83325 11.2966 2.41904 10.7108C3.00482 10.125 3.94763 10.125 5.83325 10.125H21.1666C23.0522 10.125 23.995 10.125 24.5808 10.7108C25.1666 11.2966 25.1666 12.2394 25.1666 14.125V21.625C25.1666 24.4534 25.1666 25.8676 24.2879 26.7463C23.4092 27.625 21.995 27.625 19.1666 27.625H7.83326C5.00483 27.625 3.59061 27.625 2.71193 26.7463C1.83325 25.8676 1.83325 24.4534 1.83325 21.625V14.125Z" stroke="#A2A2A2" stroke-width="2"/>
<path id="Vector 5" d="M19.3332 8.66667V7.20833C19.3332 6.4343 19.3332 6.04728 19.2904 5.72237C18.995 3.4787 17.2295 1.71316 14.9858 1.41778C14.6609 1.375 14.2739 1.375 13.4998 1.375V1.375C12.7258 1.375 12.3388 1.375 12.0139 1.41778C9.77021 1.71316 8.00466 3.4787 7.70928 5.72237C7.6665 6.04728 7.6665 6.4343 7.6665 7.20833V8.66667" stroke="#A2A2A2" stroke-width="2" stroke-linecap="round"/>
<circle id="Ellipse 6" cx="13.4999" cy="18.8752" r="2.91667" fill="#A2A2A2"/>
</g>
</svg>
