<svg width="29" height="29" viewBox="0 0 29 29" fill="none" xmlns="http://www.w3.org/2000/svg">
<path fill-rule="evenodd" clip-rule="evenodd" d="M6.37314 12.2358C6.0415 12.9569 6.0415 13.7772 6.0415 15.4178V20.5416C6.0415 22.82 6.0415 23.9593 6.74933 24.6671C7.41492 25.3327 8.46197 25.3724 10.479 25.3748V19.3333C10.479 18.1137 11.4677 17.125 12.6873 17.125H16.3123C17.532 17.125 18.5207 18.1137 18.5207 19.3333V25.3748C20.5377 25.3724 21.5848 25.3327 22.2503 24.6671C22.9582 23.9593 22.9582 22.82 22.9582 20.5416V15.4178C22.9582 13.7772 22.9582 12.9569 22.6265 12.2358C22.2949 11.5147 21.6721 10.9809 20.4264 9.91318L19.2181 8.87746C16.9666 6.9476 15.8408 5.98267 14.4998 5.98267C13.1589 5.98267 12.0331 6.9476 9.7816 8.87746L8.57327 9.91318C7.32761 10.9809 6.70479 11.5147 6.37314 12.2358ZM16.5207 25.3749V19.3333C16.5207 19.2183 16.4274 19.125 16.3123 19.125H12.6873C12.5723 19.125 12.479 19.2183 12.479 19.3333V25.3749H16.5207Z" fill="white"/>
</svg>
