<svg width="181" height="181" viewBox="0 0 181 181" fill="none" xmlns="http://www.w3.org/2000/svg">
<g id="505471191657172067 1">
<path id="Vector" d="M147.062 22.625H26.3957C15.9844 22.625 7.5415 31.0679 7.5415 41.4792V131.979C7.5415 142.39 15.9844 150.833 26.3957 150.833H116.002C111.831 144.977 109.354 137.831 109.354 130.094C109.354 110.308 125.391 94.2708 145.177 94.2708C152.915 94.2708 160.06 96.7483 165.917 100.919V41.4792C165.917 31.0679 157.474 22.625 147.062 22.625ZM111.428 85.3905L72.9655 107.597C71.8455 108.246 70.6125 108.57 69.3832 108.57C68.1539 108.57 66.9246 108.246 65.8009 107.597C63.5572 106.3 62.2186 103.984 62.2186 101.39V56.9811C62.2186 54.3905 63.5572 52.0714 65.8009 50.778C68.0445 49.4846 70.7218 49.4809 72.9655 50.778L111.428 72.9845C113.672 74.2816 115.01 76.5969 115.01 79.1913C115.01 81.7856 113.672 84.0971 111.428 85.3905Z" fill="black"/>
<path id="Vector_2" d="M145.177 101.812C129.558 101.812 116.896 114.475 116.896 130.094C116.896 145.713 129.558 158.375 145.177 158.375C160.796 158.375 173.458 145.713 173.458 130.094C173.458 114.475 160.796 101.812 145.177 101.812ZM157.27 128.989C156.535 129.724 155.57 130.094 154.604 130.094C153.639 130.094 152.674 129.724 151.938 128.989L148.948 125.999V143.292C148.948 145.373 147.259 147.062 145.177 147.062C143.096 147.062 141.406 145.373 141.406 143.292V125.999L138.416 128.989C136.942 130.463 134.559 130.463 133.084 128.989C131.61 127.515 131.61 125.128 133.084 123.657L142.511 114.23C143.986 112.759 146.369 112.759 147.843 114.23L157.27 123.657C158.745 125.131 158.745 127.518 157.27 128.989Z" fill="black"/>
</g>
</svg>
