<svg width="35" height="35" viewBox="0 0 35 35" fill="none" xmlns="http://www.w3.org/2000/svg">
<path fill-rule="evenodd" clip-rule="evenodd" d="M23.0074 19.4274C23.2186 18.824 23.3334 18.1753 23.3334 17.4998C23.3334 14.2782 20.7217 11.6665 17.5001 11.6665C16.8246 11.6665 16.1759 11.7813 15.5725 11.9925L17.2543 13.6743C17.3356 13.6691 17.4175 13.6665 17.5001 13.6665C19.6172 13.6665 21.3334 15.3827 21.3334 17.4998C21.3334 17.5824 21.3308 17.6644 21.3257 17.7456L23.0074 19.4274ZM14.4783 15.1409C13.9698 15.7914 13.6667 16.6102 13.6667 17.4998C13.6667 19.6169 15.383 21.3332 17.5001 21.3332C18.3897 21.3332 19.2086 21.0301 19.859 20.5216L21.2802 21.9428C20.2621 22.8099 18.9422 23.3332 17.5001 23.3332C14.2784 23.3332 11.6667 20.7215 11.6667 17.4998C11.6667 16.0577 12.1901 14.7379 13.0571 13.7197L14.4783 15.1409Z" fill="#A2A2A2"/>
<path fill-rule="evenodd" clip-rule="evenodd" d="M26.7871 23.2075C28.4961 21.7409 29.8214 20.1978 30.6101 19.1968C30.634 19.1664 30.659 19.1351 30.6848 19.1029L30.6848 19.1029C30.9909 18.7197 31.4008 18.2067 31.4008 17.5C31.4008 16.7933 30.9909 16.2803 30.6848 15.8971C30.6591 15.8649 30.6341 15.8336 30.6101 15.8032C29.6609 14.5986 27.9347 12.6088 25.6976 10.9121C23.4715 9.22374 20.6396 7.75 17.5 7.75C15.7227 7.75 14.044 8.22227 12.518 8.93839L14.0377 10.4581C15.1507 10.0147 16.3131 9.75 17.5 9.75C20.0194 9.75 22.4283 10.9427 24.489 12.5056C26.5387 14.0602 28.1452 15.9065 29.0391 17.041C29.1376 17.166 29.2123 17.2609 29.2743 17.3443C29.3273 17.4155 29.3607 17.4646 29.3824 17.5C29.3607 17.5354 29.3273 17.5845 29.2743 17.6557C29.2123 17.7391 29.1376 17.834 29.0391 17.959C28.2774 18.9258 26.9983 20.4093 25.3684 21.7888L26.7871 23.2075ZM24.3592 25.0222L22.9065 23.5695C21.235 24.5725 19.3989 25.25 17.5 25.25C14.9805 25.25 12.5716 24.0573 10.511 22.4944C8.46125 20.9398 6.85472 19.0935 5.9608 17.959C5.8623 17.834 5.78765 17.7391 5.7256 17.6557C5.67264 17.5845 5.63925 17.5354 5.61754 17.5C5.63925 17.4646 5.67264 17.4155 5.7256 17.3443C5.78765 17.2609 5.8623 17.166 5.9608 17.041C6.85472 15.9065 8.46125 14.0602 10.511 12.5056C10.7639 12.3138 11.0222 12.1275 11.2852 11.9483L9.84842 10.5114C9.66262 10.6432 9.48055 10.777 9.30236 10.9121C7.06527 12.6088 5.339 14.5986 4.38986 15.8032C4.36588 15.8336 4.34087 15.8649 4.31512 15.8971C4.00902 16.2803 3.59912 16.7933 3.59912 17.5C3.59912 18.2067 4.00902 18.7197 4.31512 19.1029C4.34087 19.1351 4.36588 19.1664 4.38986 19.1968C5.339 20.4014 7.06527 22.3912 9.30237 24.0879C11.5285 25.7763 14.3604 27.25 17.5 27.25C20.0405 27.25 22.3795 26.285 24.3592 25.0222Z" fill="#A2A2A2"/>
<path d="M7.29175 2.9165L30.6251 26.2498" stroke="#A2A2A2" stroke-width="2"/>
</svg>
